<svg xmlns="http://www.w3.org/2000/svg" viewBox="0 0 512 512">
  <!-- Background -->
  <rect width="512" height="512" rx="96" fill="#1a4731"/>
  <!-- Body -->
  <ellipse cx="256" cy="300" rx="130" ry="110" fill="#4ade80"/>
  <!-- Head -->
  <ellipse cx="256" cy="210" rx="100" ry="85" fill="#4ade80"/>
  <!-- Left eye bump -->
  <ellipse cx="200" cy="148" rx="38" ry="34" fill="#4ade80"/>
  <!-- Right eye bump -->
  <ellipse cx="312" cy="148" rx="38" ry="34" fill="#4ade80"/>
  <!-- Left eye white -->
  <ellipse cx="200" cy="145" rx="26" ry="24" fill="#fff"/>
  <!-- Right eye white -->
  <ellipse cx="312" cy="145" rx="26" ry="24" fill="#fff"/>
  <!-- Left pupil -->
  <ellipse cx="202" cy="147" rx="13" ry="14" fill="#1a1a1a"/>
  <!-- Right pupil -->
  <ellipse cx="314" cy="147" rx="13" ry="14" fill="#1a1a1a"/>
  <!-- Left eye shine -->
  <ellipse cx="207" cy="141" rx="5" ry="5" fill="#fff" opacity="0.7"/>
  <!-- Right eye shine -->
  <ellipse cx="319" cy="141" rx="5" ry="5" fill="#fff" opacity="0.7"/>
  <!-- Smile -->
  <path d="M220 248 Q256 276 292 248" stroke="#2d6a4f" stroke-width="5" fill="none" stroke-linecap="round"/>
  <!-- Left front leg -->
  <path d="M150 320 Q110 355 90 390 Q108 382 120 395 Q130 375 148 360 Q160 380 175 385 Q168 360 168 340Z" fill="#22c55e"/>
  <!-- Right front leg -->
  <path d="M362 320 Q402 355 422 390 Q404 382 392 395 Q382 375 364 360 Q352 380 337 385 Q344 360 344 340Z" fill="#22c55e"/>
  <!-- Left back leg -->
  <path d="M165 390 Q130 420 115 455 Q130 448 140 458 Q152 435 168 422 Q178 440 192 445 Q186 418 184 398Z" fill="#22c55e"/>
  <!-- Right back leg -->
  <path d="M347 390 Q382 420 397 455 Q382 448 372 458 Q360 435 344 422 Q334 440 320 445 Q326 418 328 398Z" fill="#22c55e"/>
  <!-- Belly highlight -->
  <ellipse cx="256" cy="320" rx="72" ry="60" fill="#86efac" opacity="0.4"/>
  <!-- Sound waves (left) -->
  <path d="M148 220 Q130 232 130 248 Q130 264 148 276" stroke="#a3e635" stroke-width="6" fill="none" stroke-linecap="round" opacity="0.8"/>
  <path d="M132 210 Q106 228 106 248 Q106 268 132 286" stroke="#a3e635" stroke-width="5" fill="none" stroke-linecap="round" opacity="0.5"/>
  <!-- Sound waves (right) -->
  <path d="M364 220 Q382 232 382 248 Q382 264 364 276" stroke="#a3e635" stroke-width="6" fill="none" stroke-linecap="round" opacity="0.8"/>
  <path d="M380 210 Q406 228 406 248 Q406 268 380 286" stroke="#a3e635" stroke-width="5" fill="none" stroke-linecap="round" opacity="0.5"/>
</svg>
